<svg xmlns="http://www.w3.org/2000/svg" viewBox="0 0 15 29" width="15" height="29">
	<style>
		tspan { white-space:pre }
		.shp0 { fill: #ffffff } 
	</style>
	<g id="our team">
		<g id="1">
			<g id="share">
				<path id="facebook" class="shp0" d="M13.09 2.2C13.09 3.68 13.09 6.32 13.09 6.32C13.09 6.32 10.05 6.02 9.29 7.18C8.88 7.82 9.12 9.68 9.09 11.02C10.41 11.02 11.79 11.02 13.11 11.02C12.77 12.58 12.53 13.64 12.28 15C11.13 15 9.06 15 9.06 15L9.06 27.8C9.06 27.8 5.27 27.8 3.48 27.8C3.48 23.85 3.48 19.25 3.48 15.05C2.61 15.05 1.97 15.05 1.11 15.05C1.11 13.57 1.11 12.5 1.11 11.02C1.95 11.02 2.61 11.02 3.45 11.02C3.58 8.07 3.62 5.15 5.08 3.67C6.73 2 8.3 2.2 13.09 2.2Z" />
			</g>
		</g>
	</g>
</svg>