<svg xmlns="http://www.w3.org/2000/svg" viewBox="0 0 28 28" width="28" height="28">
	<style>
		tspan { white-space:pre }
		.shp0 { fill: #f38181 } 
	</style>
	<g id="our team">
		<g id="1">
			<g id="share">
				<path id="instagram" class="shp0" d="M23.7 26.8L4.5 26.8C2.73 26.8 1.3 25.37 1.3 23.6L1.3 4.4C1.3 2.63 2.73 1.2 4.5 1.2L23.7 1.2C25.47 1.2 26.9 2.63 26.9 4.4L26.9 23.6C26.9 25.37 25.47 26.8 23.7 26.8ZM14.1 9.04C12.1 9.04 10.39 10.22 9.6 11.92L9.6 11.92C9.59 11.94 9.58 11.96 9.58 11.97C9.53 12.08 9.49 12.19 9.45 12.3C9.43 12.35 9.41 12.4 9.39 12.45C9.35 12.56 9.32 12.68 9.29 12.79C9.28 12.84 9.26 12.9 9.25 12.95C9.23 13.07 9.21 13.19 9.19 13.32C9.19 13.37 9.17 13.42 9.17 13.47C9.15 13.64 9.14 13.82 9.14 14C9.14 16.74 11.36 18.96 14.1 18.96C16.84 18.96 19.06 16.74 19.06 14C19.06 13.82 19.05 13.64 19.03 13.47C19.03 13.42 19.01 13.37 19.01 13.32C18.99 13.19 18.97 13.07 18.95 12.95C18.93 12.9 18.92 12.84 18.91 12.79C18.88 12.68 18.85 12.56 18.81 12.45C18.79 12.4 18.77 12.35 18.75 12.3C18.71 12.19 18.67 12.08 18.62 11.97C18.62 11.96 18.61 11.94 18.6 11.92L18.6 11.92C17.81 10.22 16.1 9.04 14.1 9.04ZM24.02 5.36C24.02 4.65 23.45 4.08 22.74 4.08L20.18 4.08C19.47 4.08 18.9 4.65 18.9 5.36L18.9 7.92C18.9 8.63 19.47 9.2 20.18 9.2L22.74 9.2C23.45 9.2 24.02 8.63 24.02 7.92L24.02 5.36ZM24.02 11.92L21.66 11.92C21.84 12.58 21.94 13.28 21.94 14C21.94 18.33 18.43 21.84 14.1 21.84C9.77 21.84 6.26 18.33 6.26 14C6.26 13.28 6.36 12.58 6.54 11.92L4.18 11.92L4.18 22.64C4.18 23.35 4.75 23.92 5.46 23.92L22.74 23.92C23.45 23.92 24.02 23.35 24.02 22.64L24.02 11.92Z" />
			</g>
		</g>
	</g>
</svg>