<svg xmlns="http://www.w3.org/2000/svg" viewBox="0 0 23 29" width="23" height="29">
	<style>
		tspan { white-space:pre }
		.shp0 { fill: #f38181 } 
	</style>
	<g id="our team">
		<g id="1">
			<g id="share">
				<path id="pinterest" class="shp0" d="M10.05 17.85C9.84 18.69 9.63 19.56 9.41 20.41C9.2 21.26 9.01 22.11 8.7 22.88C8.18 24.17 7.52 25.4 6.65 26.41C6.08 27.07 6.2 26.81 6.03 26.77C5.89 26.74 5.88 26.61 5.86 26.43C5.72 25.41 5.81 24.23 5.86 23.09C5.92 21.78 6.2 20.7 6.45 19.61C6.94 17.55 7.4 15.53 7.89 13.45C7.92 13.31 8.01 13.08 7.98 13.01C7.76 12.43 7.61 11.91 7.55 11.31C7.48 10.61 7.53 9.96 7.69 9.36C7.96 8.3 8.6 7.37 9.58 7.02C10.21 6.81 10.9 6.91 11.32 7.16C11.75 7.41 12.05 7.82 12.18 8.4C12.33 9.02 12.22 9.75 12.1 10.29C11.84 11.51 11.49 12.43 11.17 13.6C11.01 14.19 10.83 14.79 10.98 15.41C11.11 15.99 11.41 16.39 11.83 16.69C12.25 17 12.75 17.17 13.45 17.15C14.68 17.1 15.53 16.32 16.1 15.58C17.01 14.39 17.57 12.79 17.78 10.89C17.84 10.28 17.89 9.57 17.85 8.88C17.76 7.59 17.36 6.56 16.72 5.76C16.11 5 15.25 4.39 14.21 4.05C13.17 3.71 11.73 3.6 10.46 3.82C8.14 4.21 6.51 5.53 5.55 7.35C5.04 8.3 4.71 9.4 4.71 10.76C4.71 11.81 4.97 12.62 5.39 13.26C5.52 13.46 5.71 13.63 5.84 13.86C6.03 14.18 5.82 14.67 5.72 15.02C5.61 15.45 5.6 16.03 5.11 16.04C4.9 16.05 4.64 15.9 4.47 15.8C3.16 15.08 2.37 13.77 2.05 12.06C1.85 11.03 1.85 9.83 2.05 8.83C2.24 7.86 2.59 6.97 2.98 6.25C3.8 4.74 4.99 3.54 6.44 2.68C7.56 2.02 8.82 1.56 10.35 1.34C10.86 1.26 11.38 1.23 11.95 1.21C13.62 1.13 15.14 1.5 16.28 2.01C17.49 2.55 18.45 3.27 19.26 4.16C20.1 5.08 20.71 6.14 21.1 7.47C21.3 8.16 21.49 8.9 21.49 9.76C21.49 10.61 21.31 11.37 21.19 12.13C20.71 14.95 19.37 17.27 17.35 18.58C16.86 18.9 16.27 19.2 15.59 19.39C14.93 19.59 14.17 19.73 13.35 19.68C12.56 19.62 11.91 19.41 11.37 19.1C10.83 18.79 10.37 18.42 10.05 17.85Z" />
			</g>
		</g>
	</g>
</svg>