<svg xmlns="http://www.w3.org/2000/svg" viewBox="0 0 28 24" width="28" height="24">
	<style>
		tspan { white-space:pre }
		.shp0 { fill: #f38181 } 
	</style>
	<g id="our team">
		<g id="1">
			<g id="share">
				<path id="twitter" class="shp0" d="M18.51 1.6C20.55 1.56 21.63 2.31 22.66 3.25C23.54 3.17 24.68 2.68 25.35 2.34C25.57 2.22 25.79 2.1 26.01 1.98C25.62 3.02 25.1 3.83 24.3 4.45C24.13 4.59 23.95 4.77 23.73 4.86C23.73 4.86 23.73 4.87 23.73 4.87C24.87 4.86 25.81 4.35 26.7 4.07C26.7 4.07 26.7 4.07 26.7 4.08C26.23 4.82 25.6 5.58 24.92 6.12C24.65 6.34 24.37 6.56 24.1 6.77C24.11 7.98 24.08 9.13 23.86 10.15C22.54 16.04 19.07 20.04 13.57 21.76C11.59 22.37 8.4 22.63 6.14 22.07C5.01 21.79 4 21.47 3.05 21.06C2.52 20.83 2.03 20.57 1.56 20.29C1.41 20.2 1.25 20.1 1.1 20.01C1.61 20.02 2.21 20.16 2.78 20.07C3.29 19.99 3.8 20.01 4.28 19.91C5.47 19.65 6.52 19.3 7.43 18.77C7.87 18.51 8.54 18.21 8.85 17.84C8.26 17.85 7.73 17.71 7.29 17.56C5.59 16.96 4.6 15.85 3.96 14.2C4.47 14.25 5.96 14.39 6.3 14.09C5.65 14.06 5.03 13.68 4.59 13.4C3.22 12.55 2.1 11.12 2.11 8.91C2.29 8.99 2.47 9.08 2.65 9.16C2.99 9.31 3.34 9.39 3.75 9.47C3.93 9.51 4.27 9.61 4.47 9.53C4.46 9.53 4.45 9.53 4.44 9.53C4.18 9.23 3.75 9.02 3.48 8.69C2.61 7.6 1.78 5.92 2.3 3.93C2.44 3.42 2.65 2.97 2.87 2.56C2.88 2.56 2.89 2.57 2.89 2.57C3 2.79 3.22 2.94 3.37 3.12C3.82 3.68 4.37 4.18 4.93 4.62C6.85 6.12 8.58 7.04 11.35 7.72C12.05 7.89 12.87 8.03 13.71 8.03C13.47 7.34 13.55 6.23 13.73 5.56C14.2 3.89 15.22 2.68 16.71 2.04C17.06 1.88 17.46 1.77 17.87 1.68C18.09 1.65 18.3 1.63 18.51 1.6Z" />
			</g>
		</g>
	</g>
</svg>